<svg xmlns="http://www.w3.org/2000/svg" xmlns:xlink="http://www.w3.org/1999/xlink" viewBox="0 0 1080 1920" width="1080" height="1920">
  <defs>
    
    <linearGradient id="bg" x1="0" y1="0" x2="0.5" y2="1">
      <stop offset="0%"   stop-color="#c05621"/>
      <stop offset="50%"  stop-color="#F89520"/>
      <stop offset="100%" stop-color="#f6ad55"/>
    </linearGradient>
    <radialGradient id="glow" cx="50%" cy="48%" r="55%">
      <stop offset="0%"   stop-color="#fff" stop-opacity="0.12"/>
      <stop offset="100%" stop-color="#c05621" stop-opacity="0"/>
    </radialGradient>
    <filter id="blur">
      <feGaussianBlur stdDeviation="40"/>
    </filter>
  
  </defs>
  
    <rect width="1080" height="1920" fill="url(#bg)"/>
    <rect width="1080" height="1920" fill="url(#glow)"/>
    <!-- Diagonal texture lines -->
    <line x1="-200" y1="0" x2="376" y2="1920" stroke="rgba(255,255,255,0.04)" stroke-width="60"/><line x1="-120" y1="0" x2="456" y2="1920" stroke="rgba(255,255,255,0.04)" stroke-width="60"/><line x1="-40" y1="0" x2="536" y2="1920" stroke="rgba(255,255,255,0.04)" stroke-width="60"/><line x1="40" y1="0" x2="616" y2="1920" stroke="rgba(255,255,255,0.04)" stroke-width="60"/><line x1="120" y1="0" x2="696" y2="1920" stroke="rgba(255,255,255,0.04)" stroke-width="60"/><line x1="200" y1="0" x2="776" y2="1920" stroke="rgba(255,255,255,0.04)" stroke-width="60"/><line x1="280" y1="0" x2="856" y2="1920" stroke="rgba(255,255,255,0.04)" stroke-width="60"/><line x1="360" y1="0" x2="936" y2="1920" stroke="rgba(255,255,255,0.04)" stroke-width="60"/><line x1="440" y1="0" x2="1016" y2="1920" stroke="rgba(255,255,255,0.04)" stroke-width="60"/><line x1="520" y1="0" x2="1096" y2="1920" stroke="rgba(255,255,255,0.04)" stroke-width="60"/><line x1="600" y1="0" x2="1176" y2="1920" stroke="rgba(255,255,255,0.04)" stroke-width="60"/><line x1="680" y1="0" x2="1256" y2="1920" stroke="rgba(255,255,255,0.04)" stroke-width="60"/><line x1="760" y1="0" x2="1336" y2="1920" stroke="rgba(255,255,255,0.04)" stroke-width="60"/><line x1="840" y1="0" x2="1416" y2="1920" stroke="rgba(255,255,255,0.04)" stroke-width="60"/><line x1="920" y1="0" x2="1496" y2="1920" stroke="rgba(255,255,255,0.04)" stroke-width="60"/><line x1="1000" y1="0" x2="1576" y2="1920" stroke="rgba(255,255,255,0.04)" stroke-width="60"/><line x1="1080" y1="0" x2="1656" y2="1920" stroke="rgba(255,255,255,0.04)" stroke-width="60"/><line x1="1160" y1="0" x2="1736" y2="1920" stroke="rgba(255,255,255,0.04)" stroke-width="60"/><line x1="1240" y1="0" x2="1816" y2="1920" stroke="rgba(255,255,255,0.04)" stroke-width="60"/><line x1="1320" y1="0" x2="1896" y2="1920" stroke="rgba(255,255,255,0.04)" stroke-width="60"/><line x1="1400" y1="0" x2="1976" y2="1920" stroke="rgba(255,255,255,0.04)" stroke-width="60"/><line x1="1480" y1="0" x2="2056" y2="1920" stroke="rgba(255,255,255,0.04)" stroke-width="60"/><line x1="1560" y1="0" x2="2136" y2="1920" stroke="rgba(255,255,255,0.04)" stroke-width="60"/><line x1="1640" y1="0" x2="2216" y2="1920" stroke="rgba(255,255,255,0.04)" stroke-width="60"/><line x1="1720" y1="0" x2="2296" y2="1920" stroke="rgba(255,255,255,0.04)" stroke-width="60"/><line x1="1800" y1="0" x2="2376" y2="1920" stroke="rgba(255,255,255,0.04)" stroke-width="60"/><line x1="1880" y1="0" x2="2456" y2="1920" stroke="rgba(255,255,255,0.04)" stroke-width="60"/><line x1="1960" y1="0" x2="2536" y2="1920" stroke="rgba(255,255,255,0.04)" stroke-width="60"/>
    <!-- Arrow / spark accent -->
    <text x="540" y="720" font-family="ui-sans-serif,sans-serif" font-size="160"
          text-anchor="middle" opacity="0.2">→</text>
    <!-- label chip -->
    <rect x="60" y="80" width="140" height="52" rx="26" fill="rgba(0,0,0,0.25)" stroke="rgba(255,255,255,0.5)" stroke-width="1.5"/>
    <text x="130" y="113" font-family="ui-sans-serif,sans-serif" font-size="22" font-weight="700"
          fill="#fff" letter-spacing="2" text-anchor="middle">CTA</text>
    <text x="1020" y="116" font-family="ui-sans-serif,sans-serif" font-size="26"
          fill="rgba(255,255,255,0.6)" font-weight="600" text-anchor="end" letter-spacing="2">6</text>

    <!-- Main headline -->
    <text x="540" y="820" font-family="ui-sans-serif,sans-serif" font-size="86"
          font-weight="900" fill="#fff" text-anchor="middle" letter-spacing="-2">START TODAY</text>
    <text x="540" y="920" font-family="ui-sans-serif,sans-serif" font-size="42"
          font-weight="700" fill="rgba(255,255,255,0.85)" text-anchor="middle">7-Day Free Trial</text>

    <!-- Button -->
    <rect x="260" y="1000" width="560" height="100" rx="50"
          fill="#fff"/>
    <text x="540" y="1063" font-family="ui-sans-serif,sans-serif" font-size="32"
          font-weight="900" fill="#F89520" text-anchor="middle">contentflywheel.com</text>

    <!-- Urgency line -->
    <text x="540" y="1180" font-family="ui-sans-serif,sans-serif" font-size="28"
          fill="rgba(255,255,255,0.75)" text-anchor="middle">No credit card required · Cancel anytime</text>

    <!-- Bottom accent stripe -->
    <rect x="0" y="1914" width="1080" height="6" fill="rgba(255,255,255,0.5)"/>
  
  <!-- placeholder:scene_6 -->
</svg>